# xmcd
#
# Track frame offsets: 
#        150
#        15732
#        31561
#        47107
#        67606
#        91159
#        110824
#        127499
#        145043
#        164478
#
# Disc length: 2575 seconds
#
# Revision: 0
# Processed by: cddbd v1.5.1PL0 Copyright (c) Steve Scherf et al.
# Submitted via: ExactAudioCopy v0.95a5
#
DISCID=810a0d0a
DTITLE=Blake - Planetizer
DYEAR=2005
DGENRE=Alt. Rock
TTITLE0=Two Ways
TTITLE1=Dryland
TTITLE2=Come Dawn
TTITLE3=12 Steps To Hell
TTITLE4=Reborn
TTITLE5=Reaching
TTITLE6=Serpent Stare
TTITLE7=Devil May Care
TTITLE8=Hold
TTITLE9=Bad Luck Ladder
EXTD=
EXTT0=
EXTT1=
EXTT2=
EXTT3=
EXTT4=
EXTT5=
EXTT6=
EXTT7=
EXTT8=
EXTT9=
PLAYORDER=
